<svg width="16" height="15" viewBox="0 0 16 15" fill="none" xmlns="http://www.w3.org/2000/svg">
<path d="M7.10362 1.48338C7.47045 0.740209 8.5302 0.74021 8.89703 1.48338L10.3429 4.4125C10.4884 4.70735 10.7696 4.91181 11.095 4.95937L14.3299 5.4322C15.1498 5.55204 15.4766 6.55988 14.883 7.13804L12.5438 9.41642C12.3079 9.64616 12.2002 9.97729 12.2559 10.3018L12.8078 13.5194C12.9479 14.3363 12.0903 14.9593 11.3567 14.5735L8.46578 13.0532C8.17439 12.9 7.82626 12.9 7.53487 13.0532L4.64396 14.5735C3.91033 14.9593 3.05278 14.3363 3.1929 13.5194L3.74475 10.3018C3.80041 9.97729 3.69274 9.64616 3.45687 9.41642L1.11767 7.13804C0.524079 6.55988 0.850861 5.55204 1.67078 5.4322L4.90569 4.95937C5.23105 4.91181 5.51223 4.70735 5.65777 4.4125L7.10362 1.48338Z" fill="#FDC102"/>
</svg>
