<svg width="32" height="32" viewBox="0 0 32 32" fill="none" xmlns="http://www.w3.org/2000/svg">
<path d="M21 10V13.5C21.1326 13.5 21.2598 13.5527 21.3535 13.6464C21.4473 13.7402 21.5 13.8674 21.5 14C21.5 14.1326 21.4473 14.2598 21.3535 14.3536C21.2598 14.4473 21.1326 14.5 21 14.5C20.8674 14.5 20.7402 14.4473 20.6464 14.3536C20.5527 14.2598 20.5 14.1326 20.5 14C20.5 13.8674 20.5527 13.7402 20.6464 13.6464C20.7402 13.5527 20.8674 13.5 21 13.5V10H11V13.5C11.1326 13.5 11.2598 13.5527 11.3535 13.6464C11.4473 13.7402 11.5 13.8674 11.5 14C11.5 14.1326 11.4473 14.2598 11.3535 14.3536C11.2598 14.4473 11.1326 14.5 11 14.5C10.8674 14.5 10.7402 14.4473 10.6464 14.3536C10.5527 14.2598 10.5 14.1326 10.5 14C10.5 13.8674 10.5527 13.7402 10.6464 13.6464C10.7402 13.5527 10.8674 13.5 11 13.5V10H7.35065C6.98002 9.99993 6.62248 10.1371 6.34698 10.385C6.07148 10.6329 5.89752 10.9741 5.85865 11.3427L4.17331 27.3427C4.15125 27.5519 4.17344 27.7634 4.23845 27.9635C4.30347 28.1636 4.40984 28.3478 4.55068 28.5041C4.69151 28.6604 4.86365 28.7853 5.05591 28.8708C5.24817 28.9562 5.45626 29.0002 5.66665 29H26.3333C27.2253 29 27.9186 28.2293 27.8253 27.3427L26.1413 11.3427C26.0613 10.58 25.4173 10 24.6493 10H21Z" fill="#1E90FF"/>
<path d="M21 14V10M11 14V10M11 13.5C10.8674 13.5 10.7402 13.5527 10.6464 13.6464C10.5527 13.7402 10.5 13.8674 10.5 14C10.5 14.1326 10.5527 14.2598 10.6464 14.3536C10.7402 14.4473 10.8674 14.5 11 14.5C11.1326 14.5 11.2598 14.4473 11.3535 14.3536C11.4473 14.2598 11.5 14.1326 11.5 14C11.5 13.8674 11.4473 13.7402 11.3535 13.6464C11.2598 13.5527 11.1326 13.5 11 13.5ZM11 13.5V10M21 13.5C20.8674 13.5 20.7402 13.5527 20.6464 13.6464C20.5527 13.7402 20.5 13.8674 20.5 14C20.5 14.1326 20.5527 14.2598 20.6464 14.3536C20.7402 14.4473 20.8674 14.5 21 14.5C21.1326 14.5 21.2598 14.4473 21.3535 14.3536C21.4473 14.2598 21.5 14.1326 21.5 14C21.5 13.8674 21.4473 13.7402 21.3535 13.6464C21.2598 13.5527 21.1326 13.5 21 13.5ZM21 13.5V10M21 10H11M21 10H24.6493C25.4173 10 26.0613 10.58 26.1413 11.3427L27.8253 27.3427C27.9186 28.2293 27.2253 29 26.3333 29H5.66665C5.45626 29.0002 5.24817 28.9562 5.05591 28.8708C4.86365 28.7853 4.69151 28.6604 4.55068 28.5041C4.40984 28.3478 4.30347 28.1636 4.23845 27.9635C4.17344 27.7634 4.15125 27.5519 4.17331 27.3427L5.85865 11.3427C5.89752 10.9741 6.07148 10.6329 6.34698 10.385C6.62248 10.1371 6.98002 9.99993 7.35065 10H11M21 10V8C21 6.67392 20.4732 5.40215 19.5355 4.46447C18.5978 3.52678 17.3261 3 16 3C14.6739 3 13.4021 3.52678 12.4644 4.46447C11.5268 5.40215 11 6.67392 11 8V10" stroke="#1E90FF" stroke-width="2" stroke-linecap="round" stroke-linejoin="round"/>
</svg>
