<svg width="33" height="32" viewBox="0 0 33 32" fill="none" xmlns="http://www.w3.org/2000/svg">
<path d="M16.5013 12C15.4404 12 14.423 12.4214 13.6729 13.1716C12.9227 13.9217 12.5013 14.9392 12.5013 16C12.5013 17.0609 12.9227 18.0783 13.6729 18.8284C14.423 19.5786 15.4404 20 16.5013 20C17.5622 20 18.5796 19.5786 19.3297 18.8284C20.0799 18.0783 20.5013 17.0609 20.5013 16C20.5013 14.9392 20.0799 13.9217 19.3297 13.1716C18.5796 12.4214 17.5622 12 16.5013 12ZM16.5013 9.33335C18.2694 9.33335 19.9651 10.0357 21.2153 11.286C22.4656 12.5362 23.168 14.2319 23.168 16C23.168 17.7681 22.4656 19.4638 21.2153 20.7141C19.9651 21.9643 18.2694 22.6667 16.5013 22.6667C14.7332 22.6667 13.0375 21.9643 11.7872 20.7141C10.537 19.4638 9.83463 17.7681 9.83463 16C9.83463 14.2319 10.537 12.5362 11.7872 11.286C13.0375 10.0357 14.7332 9.33335 16.5013 9.33335ZM25.168 9.00002C25.168 9.44205 24.9924 9.86597 24.6798 10.1785C24.3672 10.4911 23.9433 10.6667 23.5013 10.6667C23.0593 10.6667 22.6353 10.4911 22.3228 10.1785C22.0102 9.86597 21.8346 9.44205 21.8346 9.00002C21.8346 8.55799 22.0102 8.13407 22.3228 7.82151C22.6353 7.50895 23.0593 7.33335 23.5013 7.33335C23.9433 7.33335 24.3672 7.50895 24.6798 7.82151C24.9924 8.13407 25.168 8.55799 25.168 9.00002ZM16.5013 5.33335C13.2026 5.33335 12.664 5.34269 11.1293 5.41069C10.084 5.46002 9.38263 5.60002 8.73196 5.85335C8.18745 6.05327 7.69518 6.3737 7.29196 6.79069C6.87463 7.19389 6.55376 7.68613 6.35329 8.23069C6.09996 8.88402 5.95996 9.58402 5.91196 10.628C5.84263 12.1 5.83329 12.6147 5.83329 16C5.83329 19.3 5.84263 19.8374 5.91063 21.372C5.95996 22.416 6.09996 23.1187 6.35196 23.768C6.57863 24.348 6.84529 24.7654 7.28796 25.208C7.73729 25.656 8.15463 25.924 8.72796 26.1454C9.38663 26.4 10.088 26.5414 11.128 26.5894C12.6 26.6587 13.1146 26.6667 16.5 26.6667C19.8 26.6667 20.3373 26.6574 21.872 26.5894C22.9146 26.54 23.616 26.4 24.268 26.148C24.812 25.9471 25.304 25.6268 25.708 25.2107C26.1573 24.7627 26.4253 24.3454 26.6466 23.7707C26.9 23.1147 27.0413 22.4134 27.0893 21.3707C27.1586 19.9 27.1666 19.384 27.1666 16C27.1666 12.7014 27.1573 12.1627 27.0893 10.628C27.04 9.58535 26.8986 8.88135 26.6466 8.23069C26.4456 7.68671 26.1254 7.19466 25.7093 6.79069C25.3063 6.37315 24.814 6.05224 24.2693 5.85202C23.616 5.59869 22.9146 5.45869 21.872 5.41069C20.4013 5.34135 19.8866 5.33335 16.5 5.33335M16.5 2.66669C20.1226 2.66669 20.5746 2.68002 21.9973 2.74669C23.416 2.81335 24.384 3.03602 25.2333 3.36669C26.1133 3.70535 26.8546 4.16402 27.596 4.90402C28.274 5.57055 28.7986 6.37681 29.1333 7.26669C29.4626 8.11602 29.6866 9.08402 29.7533 10.504C29.816 11.9254 29.8333 12.3774 29.8333 16C29.8333 19.6227 29.82 20.0747 29.7533 21.496C29.6866 22.916 29.4626 23.8827 29.1333 24.7334C28.7995 25.6237 28.2748 26.4301 27.596 27.096C26.9292 27.7738 26.123 28.2984 25.2333 28.6334C24.384 28.9627 23.416 29.1867 21.9973 29.2534C20.5746 29.316 20.1226 29.3334 16.5 29.3334C12.8773 29.3334 12.4253 29.32 11.0026 29.2534C9.58396 29.1867 8.61729 28.9627 7.76663 28.6334C6.87639 28.2993 6.07 27.7746 5.40396 27.096C4.72587 26.4296 4.20124 25.6233 3.86663 24.7334C3.53596 23.884 3.31329 22.916 3.24663 21.496C3.18263 20.0747 3.16663 19.6227 3.16663 16C3.16663 12.3774 3.17996 11.9254 3.24663 10.504C3.31329 9.08402 3.53596 8.11735 3.86663 7.26669C4.20027 6.37626 4.72503 5.56978 5.40396 4.90402C6.07019 4.22566 6.87653 3.70099 7.76663 3.36669C8.61596 3.03602 9.58263 2.81335 11.0026 2.74669C12.4266 2.68402 12.8786 2.66669 16.5013 2.66669" fill="black"/>
</svg>
