<svg width="24" height="25" viewBox="0 0 24 25" fill="none" xmlns="http://www.w3.org/2000/svg">
<path fill-rule="evenodd" clip-rule="evenodd" d="M7.42226 20.3203C7.84426 20.3203 8.18726 20.6633 8.18726 21.0853C8.18726 21.5073 7.84426 21.8493 7.42226 21.8493C7.00026 21.8493 6.65826 21.5073 6.65826 21.0853C6.65826 20.6633 7.00026 20.3203 7.42226 20.3203Z" stroke="black" stroke-width="1.5" stroke-linecap="round" stroke-linejoin="round"/>
<path fill-rule="evenodd" clip-rule="evenodd" d="M18.6747 20.3203C19.0967 20.3203 19.4397 20.6633 19.4397 21.0853C19.4397 21.5073 19.0967 21.8493 18.6747 21.8493C18.2527 21.8493 17.9097 21.5073 17.9097 21.0853C17.9097 20.6633 18.2527 20.3203 18.6747 20.3203Z" stroke="black" stroke-width="1.5" stroke-linecap="round" stroke-linejoin="round"/>
<path d="M2.74988 3.75L4.82988 4.11L5.79288 15.583C5.87088 16.518 6.65188 17.236 7.58988 17.236H18.5019C19.3979 17.236 20.1579 16.578 20.2869 15.69L21.2359 9.132C21.3529 8.323 20.7259 7.599 19.9089 7.599H5.16388" stroke="black" stroke-width="1.5" stroke-linecap="round" stroke-linejoin="round"/>
<path d="M14.1254 11.2949H16.8984" stroke="black" stroke-width="1.5" stroke-linecap="round" stroke-linejoin="round"/>
</svg>
