<svg width="14" height="13" viewBox="0 0 14 13" fill="none" xmlns="http://www.w3.org/2000/svg">
<path d="M6.10354 1.31663C6.47037 0.573461 7.53012 0.573462 7.89695 1.31663L9.0853 3.72409C9.23084 4.01894 9.51202 4.2234 9.83738 4.27095L12.4965 4.65962C13.3164 4.77946 13.6432 5.7873 13.0496 6.36546L11.127 8.23801C10.8912 8.46775 10.7835 8.79888 10.8392 9.12341L11.2927 11.7676C11.4328 12.5846 10.5752 13.2076 9.84161 12.8217L7.4657 11.5723C7.17431 11.419 6.82618 11.419 6.53479 11.5723L4.15888 12.8217C3.42525 13.2076 2.5677 12.5846 2.70782 11.7676L3.16133 9.12341C3.21699 8.79888 3.10933 8.46775 2.87346 8.23801L0.950922 6.36546C0.357329 5.7873 0.684113 4.77946 1.50403 4.65962L4.16311 4.27095C4.48846 4.2234 4.76965 4.01894 4.91519 3.72409L6.10354 1.31663Z" fill="#949494"/>
</svg>
