<svg width="27" height="28" viewBox="0 0 27 28" fill="none" xmlns="http://www.w3.org/2000/svg">
<path d="M7.17199 22.6587L8.13732 23.2227C9.76524 24.1721 11.6168 24.6706 13.5013 24.6667C15.611 24.6667 17.6733 24.0411 19.4274 22.869C21.1815 21.697 22.5487 20.0311 23.356 18.082C24.1634 16.1329 24.3746 13.9882 23.963 11.9191C23.5515 9.84993 22.5356 7.94931 21.0438 6.45755C19.552 4.96579 17.6514 3.94989 15.5823 3.53831C13.5132 3.12674 11.3684 3.33797 9.41936 4.14531C7.47029 4.95264 5.80438 6.31981 4.63231 8.07394C3.46024 9.82806 2.83465 11.8904 2.83465 14C2.83076 15.8852 3.32968 17.7373 4.27999 19.3654L4.84265 20.3307L3.97199 23.532L7.17199 22.6587ZM0.173321 27.3334L1.97599 20.7094C0.788112 18.6732 0.164051 16.3574 0.167987 14C0.167987 6.63602 6.13732 0.666687 13.5013 0.666687C20.8653 0.666687 26.8347 6.63602 26.8347 14C26.8347 21.364 20.8653 27.3334 13.5013 27.3334C11.145 27.3372 8.8302 26.7136 6.79465 25.5267L0.173321 27.3334ZM8.68932 7.74402C8.86799 7.73069 9.04799 7.73069 9.22665 7.73869C9.29865 7.74402 9.37065 7.75202 9.44265 7.76002C9.65465 7.78402 9.88799 7.91335 9.96665 8.09202C10.364 8.99335 10.7507 9.90135 11.124 10.812C11.2067 11.0147 11.1573 11.2747 11 11.528C10.92 11.6574 10.7947 11.8387 10.6493 12.024C10.4987 12.2174 10.1747 12.572 10.1747 12.572C10.1747 12.572 10.0427 12.7294 10.0933 12.9254C10.112 13 10.1733 13.108 10.2293 13.1987L10.308 13.3254C10.6493 13.8947 11.108 14.472 11.668 15.016C11.828 15.1707 11.984 15.3294 12.152 15.4774C12.776 16.028 13.4827 16.4774 14.2453 16.8107L14.252 16.8134C14.3653 16.8627 14.4227 16.8894 14.588 16.96C14.6707 16.9947 14.756 17.024 14.8427 17.048C14.9322 17.0708 15.0265 17.0665 15.1136 17.0357C15.2008 17.0048 15.2768 16.9488 15.332 16.8747C16.2973 15.7054 16.3853 15.6294 16.3933 15.6294V15.632C16.4604 15.5695 16.5401 15.522 16.627 15.4928C16.7139 15.4636 16.8061 15.4533 16.8973 15.4627C16.9773 15.468 17.0587 15.4827 17.1333 15.516C17.8413 15.84 19 16.3454 19 16.3454L19.776 16.6934C19.9067 16.756 20.0253 16.904 20.0293 17.0467C20.0347 17.136 20.0427 17.28 20.012 17.544C19.9693 17.8894 19.8653 18.304 19.7613 18.5214C19.69 18.6696 19.5955 18.8056 19.4813 18.924C19.3468 19.0653 19.1995 19.1938 19.0413 19.308C18.932 19.3907 18.8747 19.428 18.8747 19.428C18.7088 19.5332 18.5384 19.6311 18.364 19.7214C18.0207 19.9037 17.6415 20.0084 17.2533 20.028C17.0067 20.0414 16.76 20.06 16.512 20.0467C16.5013 20.0467 15.7547 19.9307 15.7547 19.9307C13.859 19.4321 12.1058 18.498 10.6347 17.2027C10.3333 16.9374 10.0533 16.652 9.76799 16.368C8.58399 15.188 7.68665 13.9147 7.14132 12.712C6.8636 12.122 6.71366 11.48 6.70132 10.828C6.69631 10.0183 6.9614 9.23012 7.45465 8.58802C7.55199 8.46269 7.64399 8.33202 7.80265 8.18135C7.97065 8.02135 8.07865 7.93602 8.19465 7.87735C8.34889 7.80006 8.51714 7.75471 8.68932 7.74402Z" fill="black"/>
</svg>
